<svg width="1081" height="1274" viewBox="0 0 1081 1274" fill="none" xmlns="http://www.w3.org/2000/svg">
<g clip-path="url(#clip0_704_19982)">
<path d="M1081 0H1V1273H1081V0Z" fill="black"/>
<path d="M1081 1273H1V1274H1081V1273Z" fill="#0F0F0F"/>
<path d="M1 0H0V1273H1V0Z" fill="#141414"/>
<path d="M34 0H33V1273H34V0Z" fill="#141414"/>
<path d="M67 0H66V1273H67V0Z" fill="#141414"/>
<path d="M100 0H99V1273H100V0Z" fill="#141414"/>
<path d="M133 0H132V1273H133V0Z" fill="#141414"/>
<path d="M166 0H165V1273H166V0Z" fill="#141414"/>
<path d="M199 0H198V1273H199V0Z" fill="#141414"/>
<path d="M232 0H231V1273H232V0Z" fill="#141414"/>
<path d="M265 0H264V1273H265V0Z" fill="#141414"/>
<path d="M298 0H297V1273H298V0Z" fill="#141414"/>
<path d="M331 0H330V1273H331V0Z" fill="#141414"/>
<path d="M364 0H363V1273H364V0Z" fill="#141414"/>
<path d="M397 0H396V1273H397V0Z" fill="#141414"/>
<path d="M430 0H429V1273H430V0Z" fill="#141414"/>
<path d="M463 0H462V1273H463V0Z" fill="#141414"/>
<path d="M496 0H495V1273H496V0Z" fill="#141414"/>
<path d="M529 0H528V1273H529V0Z" fill="#141414"/>
<path d="M562 0H561V1273H562V0Z" fill="#141414"/>
<path d="M595 0H594V1273H595V0Z" fill="#141414"/>
<path d="M628 0H627V1273H628V0Z" fill="#141414"/>
<path d="M661 0H660V1273H661V0Z" fill="#141414"/>
<path d="M694 0H693V1273H694V0Z" fill="#141414"/>
<path d="M727 0H726V1273H727V0Z" fill="#141414"/>
<path d="M760 0H759V1273H760V0Z" fill="#141414"/>
<path d="M793 0H792V1273H793V0Z" fill="#141414"/>
<path d="M826 0H825V1273H826V0Z" fill="#141414"/>
<path d="M859 0H858V1273H859V0Z" fill="#141414"/>
<path d="M892 0H891V1273H892V0Z" fill="#141414"/>
<path d="M925 0H924V1273H925V0Z" fill="#141414"/>
<path d="M958 0H957V1273H958V0Z" fill="#141414"/>
<path d="M991 0H990V1273H991V0Z" fill="#141414"/>
<path d="M1024 0H1023V1273H1024V0Z" fill="#141414"/>
<path d="M1057 0H1056V1273H1057V0Z" fill="#141414"/>
<path d="M1081 0H1V1H1081V0Z" fill="#141414"/>
<path d="M1081 33H1V34H1081V33Z" fill="#141414"/>
<path d="M1081 66H1V67H1081V66Z" fill="#141414"/>
<path d="M1081 99H1V100H1081V99Z" fill="#141414"/>
<path d="M1081 132H1V133H1081V132Z" fill="#141414"/>
<path d="M1081 165H1V166H1081V165Z" fill="#141414"/>
<path d="M1081 198H1V199H1081V198Z" fill="#141414"/>
<path d="M1081 231H1V232H1081V231Z" fill="#141414"/>
<path d="M1081 264H1V265H1081V264Z" fill="#141414"/>
<path d="M1081 297H1V298H1081V297Z" fill="#141414"/>
<path d="M1081 330H1V331H1081V330Z" fill="#141414"/>
<path d="M1081 363H1V364H1081V363Z" fill="#141414"/>
<path d="M1081 396H1V397H1081V396Z" fill="#141414"/>
<path d="M1081 429H1V430H1081V429Z" fill="#141414"/>
<path d="M1081 462H1V463H1081V462Z" fill="#141414"/>
<path d="M1081 495H1V496H1081V495Z" fill="#141414"/>
<path d="M1081 528H1V529H1081V528Z" fill="#141414"/>
<path d="M1081 561H1V562H1081V561Z" fill="#141414"/>
<path d="M1081 594H1V595H1081V594Z" fill="#141414"/>
<path d="M1081 627H1V628H1081V627Z" fill="#141414"/>
<path d="M1081 660H1V661H1081V660Z" fill="#141414"/>
<path d="M1081 693H1V694H1081V693Z" fill="#141414"/>
<path d="M1081 726H1V727H1081V726Z" fill="#141414"/>
<path d="M1081 759H1V760H1081V759Z" fill="#141414"/>
<path d="M1081 792H1V793H1081V792Z" fill="#141414"/>
<path d="M1081 825H1V826H1081V825Z" fill="#141414"/>
<path d="M1081 858H1V859H1081V858Z" fill="#141414"/>
<path d="M1081 891H1V892H1081V891Z" fill="#141414"/>
<path d="M1081 924H1V925H1081V924Z" fill="#141414"/>
<path d="M1081 957H1V958H1081V957Z" fill="#141414"/>
<path d="M1081 990H1V991H1081V990Z" fill="#141414"/>
<path d="M1081 1023H1V1024H1081V1023Z" fill="#141414"/>
<path d="M1081 1056H1V1057H1081V1056Z" fill="#141414"/>
<path d="M1081 1089H1V1090H1081V1089Z" fill="#141414"/>
<path d="M1081 1122H1V1123H1081V1122Z" fill="#141414"/>
<path d="M1081 1155H1V1156H1081V1155Z" fill="#141414"/>
<path d="M1081 1188H1V1189H1081V1188Z" fill="#141414"/>
<path d="M1081 1221H1V1222H1081V1221Z" fill="#141414"/>
<path d="M1081 1254H1V1255H1081V1254Z" fill="#141414"/>
</g>
<defs>
<clipPath id="clip0_704_19982">
<rect width="1081" height="1274" fill="white"/>
</clipPath>
</defs>
</svg>
